<svg xmlns="http://www.w3.org/2000/svg" width="16" height="16" viewBox="0 0 16 16">
  <g fill="none" fill-rule="evenodd">
    <rect width="16" height="16" fill="#6E56CF" rx="2"/>
    <path fill="#FFF" d="M4,4 L12,4 C13.1045695,4 14,4.8954305 14,6 L14,10 C14,11.1045695 13.1045695,12 12,12 L4,12 C2.8954305,12 2,11.1045695 2,10 L2,6 C2,4.8954305 2.8954305,4 4,4 Z M5,6 C4.44771525,6 4,6.44771525 4,7 C4,7.55228475 4.44771525,8 5,8 C5.55228475,8 6,7.55228475 6,7 C6,6.44771525 5.55228475,6 5,6 Z M8,6 C7.44771525,6 7,6.44771525 7,7 C7,7.55228475 7.44771525,8 8,8 C8.55228475,8 9,7.55228475 9,7 C9,6.44771525 8.55228475,6 8,6 Z M11,6 C10.4477153,6 10,6.44771525 10,7 C10,7.55228475 10.4477153,8 11,8 C11.5522847,8 12,7.55228475 12,7 C12,6.44771525 11.5522847,6 11,6 Z M5,10 C4.44771525,10 4,9.55228475 4,9 C4,8.44771525 4.44771525,8 5,8 C5.55228475,8 6,8.44771525 6,9 C6,9.55228475 5.55228475,10 5,10 Z M8,10 C7.44771525,10 7,9.55228475 7,9 C7,8.44771525 7.44771525,8 8,8 C8.55228475,8 9,8.44771525 9,9 C9,9.55228475 8.55228475,10 8,10 Z M11,10 C10.4477153,10 10,9.55228475 10,9 C10,8.44771525 10.4477153,8 11,8 C11.5522847,8 12,8.44771525 12,9 C12,9.55228475 11.5522847,10 11,10 Z"/>
  </g>
</svg>
